<svg xmlns="http://www.w3.org/2000/svg" viewBox="0 0 64 64" fill="none">
  <path
    d="M31.5 10C22.4 10 15 17.2 15 26.3c0 3.9 1.3 7.5 3.6 10.3-.3 1.3-.9 2.7-2 4.1-.6.8-.7 1.8-.2 2.7.5.9 1.4 1.4 2.4 1.4h5.3c2.1 2.1 4.8 3.5 7.9 3.9V54c0 1.1.9 2 2 2s2-.9 2-2v-5.3c3.1-.4 5.9-1.8 8-3.9h5.2c1 0 1.9-.5 2.4-1.4.5-.9.4-1.9-.2-2.7-1.1-1.4-1.7-2.8-2-4.1 2.3-2.8 3.6-6.4 3.6-10.3C48 17.2 40.6 10 31.5 10Z"
    stroke="#ffffff"
    stroke-width="4"
    stroke-linecap="round"
    stroke-linejoin="round"
  />
  <path
    d="M31.5 16.5v14.7M24 20.5c-2.6 1.2-4.4 3.8-4.4 6.9 0 1.8.6 3.4 1.6 4.7m20.6-11.6c2.5 1.2 4.2 3.8 4.2 6.9 0 1.8-.6 3.4-1.6 4.7M31.5 31.2c-4.1 0-7.4 3.3-7.4 7.3"
    stroke="#ffffff"
    stroke-width="3"
    stroke-linecap="round"
    stroke-linejoin="round"
    opacity="0.95"
  />
  <circle cx="39.5" cy="24.5" r="5.5" fill="#ff5a5f" stroke="#ffffff" stroke-width="2" />
</svg>
